<svg width="24" height="24" viewBox="0 0 24 24" fill="none" xmlns="http://www.w3.org/2000/svg">
<path d="M11.9998 1.99997C17.5228 1.99997 21.9998 6.47697 21.9998 12C21.9998 17.523 17.5228 22 11.9998 22C10.1779 22.0028 8.3903 21.5054 6.83176 20.562L3.79976 21.454C3.62568 21.5052 3.44102 21.5086 3.26518 21.4637C3.08935 21.4189 2.92884 21.3275 2.80052 21.1992C2.67221 21.0709 2.58084 20.9104 2.53601 20.7345C2.49118 20.5587 2.49455 20.3741 2.54576 20.2L3.43776 17.168C2.49472 15.6093 1.99734 13.8217 1.99976 12C1.99976 6.47697 6.47676 1.99997 11.9998 1.99997ZM11.9998 3.99997C10.5674 3.99971 9.16122 4.38403 7.92809 5.11278C6.69497 5.84154 5.68012 6.88801 4.98953 8.14291C4.29893 9.39781 3.95793 10.8151 4.00212 12.2468C4.04632 13.6785 4.47409 15.0721 5.24076 16.282C5.46776 16.639 5.54576 17.089 5.41776 17.522L4.97676 19.023L6.47776 18.582C6.91076 18.454 7.36076 18.532 7.71776 18.759C8.76609 19.4228 9.95445 19.8336 11.1889 19.959C12.4234 20.0844 13.6701 19.921 14.8305 19.4816C15.9909 19.0422 17.0332 18.3389 17.8749 17.4273C18.7167 16.5156 19.3349 15.4207 19.6806 14.2291C20.0264 13.0374 20.0902 11.7816 19.867 10.5611C19.6438 9.3405 19.1398 8.18857 18.3948 7.19635C17.6497 6.20412 16.6841 5.3988 15.5742 4.84405C14.4643 4.2893 13.2406 4.00032 11.9998 3.99997ZM8.49976 10.5C8.89759 10.5 9.27912 10.658 9.56042 10.9393C9.84173 11.2206 9.99976 11.6021 9.99976 12C9.99976 12.3978 9.84173 12.7793 9.56042 13.0606C9.27912 13.3419 8.89759 13.5 8.49976 13.5C8.10194 13.5 7.72041 13.3419 7.4391 13.0606C7.1578 12.7793 6.99976 12.3978 6.99976 12C6.99976 11.6021 7.1578 11.2206 7.4391 10.9393C7.72041 10.658 8.10194 10.5 8.49976 10.5ZM15.4998 10.5C15.8976 10.5 16.2791 10.658 16.5604 10.9393C16.8417 11.2206 16.9998 11.6021 16.9998 12C16.9998 12.3978 16.8417 12.7793 16.5604 13.0606C16.2791 13.3419 15.8976 13.5 15.4998 13.5C15.1019 13.5 14.7204 13.3419 14.4391 13.0606C14.1578 12.7793 13.9998 12.3978 13.9998 12C13.9998 11.6021 14.1578 11.2206 14.4391 10.9393C14.7204 10.658 15.1019 10.5 15.4998 10.5Z" fill="#1F3E97"/>
</svg>